<svg xmlns="http://www.w3.org/2000/svg" xmlns:xlink="http://www.w3.org/1999/xlink" width="2000" zoomAndPan="magnify" viewBox="0 0 1500 1499.999933" height="2000" preserveAspectRatio="xMidYMid meet" version="1.0"><defs><g/></defs><g fill="#303030" fill-opacity="1"><g transform="translate(351.960941, 808.243038)"><g><path d="M 11.609375 0 L 11.609375 -134.09375 L 64.984375 -134.09375 C 74.753906 -134.09375 82.941406 -132.625 89.546875 -129.6875 C 96.148438 -126.75 101.113281 -122.679688 104.4375 -117.484375 C 107.769531 -112.296875 109.4375 -106.34375 109.4375 -99.625 C 109.4375 -94.40625 108.398438 -89.816406 106.328125 -85.859375 C 104.253906 -81.898438 101.40625 -78.660156 97.78125 -76.140625 C 94.15625 -73.617188 90 -71.816406 85.3125 -70.734375 L 85.3125 -69.5625 C 90.476562 -69.320312 95.28125 -67.867188 99.71875 -65.203125 C 104.15625 -62.535156 107.738281 -58.832031 110.46875 -54.09375 C 113.195312 -49.351562 114.5625 -43.710938 114.5625 -37.171875 C 114.5625 -30.023438 112.820312 -23.644531 109.34375 -18.03125 C 105.863281 -12.425781 100.6875 -8.019531 93.8125 -4.8125 C 86.945312 -1.601562 78.445312 0 68.3125 0 Z M 39.0625 -22.40625 L 63.265625 -22.40625 C 71.128906 -22.40625 76.9375 -23.945312 80.6875 -27.03125 C 84.4375 -30.125 86.3125 -34.285156 86.3125 -39.515625 C 86.3125 -43.285156 85.410156 -46.609375 83.609375 -49.484375 C 81.804688 -52.367188 79.222656 -54.617188 75.859375 -56.234375 C 72.503906 -57.859375 68.515625 -58.671875 63.890625 -58.671875 L 39.0625 -58.671875 Z M 39.0625 -77.9375 L 61.375 -77.9375 C 65.332031 -77.9375 68.84375 -78.625 71.90625 -80 C 74.96875 -81.382812 77.367188 -83.378906 79.109375 -85.984375 C 80.847656 -88.597656 81.71875 -91.675781 81.71875 -95.21875 C 81.71875 -100.195312 79.976562 -104.210938 76.5 -107.265625 C 73.019531 -110.328125 68.097656 -111.859375 61.734375 -111.859375 L 39.0625 -111.859375 Z M 39.0625 -77.9375 "/></g></g></g><g fill="#303030" fill-opacity="1"><g transform="translate(473.178296, 808.243038)"><g><path d="M 39.328125 1.890625 C 32.960938 1.890625 27.257812 0.78125 22.21875 -1.4375 C 17.1875 -3.65625 13.226562 -6.96875 10.34375 -11.375 C 7.46875 -15.789062 6.03125 -21.269531 6.03125 -27.8125 C 6.03125 -33.382812 7.050781 -38.03125 9.09375 -41.75 C 11.132812 -45.476562 13.921875 -48.476562 17.453125 -50.75 C 20.992188 -53.03125 25.03125 -54.753906 29.5625 -55.921875 C 34.09375 -57.097656 38.847656 -57.925781 43.828125 -58.40625 C 49.648438 -59.007812 54.328125 -59.566406 57.859375 -60.078125 C 61.398438 -60.585938 63.976562 -61.378906 65.59375 -62.453125 C 67.21875 -63.535156 68.03125 -65.15625 68.03125 -67.3125 L 68.03125 -67.765625 C 68.03125 -70.523438 67.414062 -72.878906 66.1875 -74.828125 C 64.957031 -76.773438 63.171875 -78.273438 60.828125 -79.328125 C 58.492188 -80.378906 55.644531 -80.90625 52.28125 -80.90625 C 48.863281 -80.90625 45.878906 -80.378906 43.328125 -79.328125 C 40.785156 -78.273438 38.71875 -76.863281 37.125 -75.09375 C 35.53125 -73.332031 34.40625 -71.34375 33.75 -69.125 L 9 -72.265625 C 10.375 -78.265625 13.007812 -83.394531 16.90625 -87.65625 C 20.8125 -91.914062 25.796875 -95.171875 31.859375 -97.421875 C 37.921875 -99.671875 44.820312 -100.796875 52.5625 -100.796875 C 58.195312 -100.796875 63.550781 -100.132812 68.625 -98.8125 C 73.695312 -97.5 78.210938 -95.460938 82.171875 -92.703125 C 86.128906 -89.941406 89.234375 -86.441406 91.484375 -82.203125 C 93.734375 -77.972656 94.859375 -72.921875 94.859375 -67.046875 L 94.859375 0 L 69.203125 0 L 69.203125 -13.859375 L 68.390625 -13.859375 C 66.773438 -10.734375 64.628906 -7.984375 61.953125 -5.609375 C 59.285156 -3.242188 56.09375 -1.398438 52.375 -0.078125 C 48.65625 1.234375 44.304688 1.890625 39.328125 1.890625 Z M 46.890625 -16.921875 C 51.148438 -16.921875 54.867188 -17.757812 58.046875 -19.4375 C 61.222656 -21.113281 63.710938 -23.363281 65.515625 -26.1875 C 67.316406 -29.007812 68.21875 -32.191406 68.21875 -35.734375 L 68.21875 -46.265625 C 67.375 -45.773438 66.203125 -45.289062 64.703125 -44.8125 C 63.203125 -44.332031 61.492188 -43.910156 59.578125 -43.546875 C 57.660156 -43.191406 55.722656 -42.863281 53.765625 -42.5625 C 51.816406 -42.269531 50.035156 -42.003906 48.421875 -41.765625 C 45.179688 -41.273438 42.300781 -40.503906 39.78125 -39.453125 C 37.257812 -38.410156 35.304688 -37.003906 33.921875 -35.234375 C 32.546875 -33.460938 31.859375 -31.257812 31.859375 -28.625 C 31.859375 -26.101562 32.503906 -23.972656 33.796875 -22.234375 C 35.085938 -20.492188 36.859375 -19.171875 39.109375 -18.265625 C 41.359375 -17.367188 43.953125 -16.921875 46.890625 -16.921875 Z M 72.453125 -112.859375 C 68.609375 -112.859375 65.347656 -114.160156 62.671875 -116.765625 C 60.003906 -119.378906 58.671875 -122.515625 58.671875 -126.171875 C 58.671875 -129.890625 60.003906 -133.039062 62.671875 -135.625 C 65.347656 -138.207031 68.609375 -139.5 72.453125 -139.5 C 76.285156 -139.5 79.519531 -138.207031 82.15625 -135.625 C 84.800781 -133.039062 86.125 -129.890625 86.125 -126.171875 C 86.125 -122.453125 84.800781 -119.300781 82.15625 -116.71875 C 79.519531 -114.144531 76.285156 -112.859375 72.453125 -112.859375 Z M 32.484375 -112.859375 C 28.703125 -112.859375 25.476562 -114.160156 22.8125 -116.765625 C 20.144531 -119.378906 18.8125 -122.515625 18.8125 -126.171875 C 18.8125 -129.890625 20.144531 -133.039062 22.8125 -135.625 C 25.476562 -138.207031 28.703125 -139.5 32.484375 -139.5 C 36.328125 -139.5 39.566406 -138.207031 42.203125 -135.625 C 44.847656 -133.039062 46.171875 -129.890625 46.171875 -126.171875 C 46.171875 -122.453125 44.847656 -119.300781 42.203125 -116.71875 C 39.566406 -114.144531 36.328125 -112.859375 32.484375 -112.859375 Z M 32.484375 -112.859375 "/></g></g></g><g fill="#303030" fill-opacity="1"><g transform="translate(579.007262, 808.243038)"><g><path d="M 45.359375 1.4375 C 38.460938 1.4375 32.429688 -0.0625 27.265625 -3.0625 C 22.109375 -6.0625 18.117188 -10.394531 15.296875 -16.0625 C 12.472656 -21.726562 11.0625 -28.492188 11.0625 -36.359375 L 11.0625 -99.359375 L 37.890625 -99.359375 L 37.890625 -41.125 C 37.890625 -34.820312 39.492188 -29.929688 42.703125 -26.453125 C 45.910156 -22.972656 50.335938 -21.234375 55.984375 -21.234375 C 59.753906 -21.234375 63.09375 -22.039062 66 -23.65625 C 68.914062 -25.28125 71.195312 -27.664062 72.84375 -30.8125 C 74.5 -33.96875 75.328125 -37.796875 75.328125 -42.296875 L 75.328125 -99.359375 L 102.234375 -99.359375 L 102.234375 0 L 76.59375 0 L 76.234375 -25.015625 L 78.484375 -25.015625 C 75.722656 -16.617188 71.625 -10.109375 66.1875 -5.484375 C 60.757812 -0.867188 53.816406 1.4375 45.359375 1.4375 Z M 45.359375 1.4375 "/></g></g></g><g fill="#303030" fill-opacity="1"><g transform="translate(692.215435, 808.243038)"><g><path d="M 11.0625 0 L 11.0625 -99.359375 L 36.171875 -99.359375 L 37.265625 -75.140625 L 35.375 -75.140625 C 36.925781 -81.140625 39.21875 -86.046875 42.25 -89.859375 C 45.28125 -93.671875 48.832031 -96.472656 52.90625 -98.265625 C 56.988281 -100.066406 61.28125 -100.96875 65.78125 -100.96875 C 72.988281 -100.96875 78.914062 -98.71875 83.5625 -94.21875 C 88.207031 -89.71875 91.492188 -82.941406 93.421875 -73.890625 L 90.359375 -73.890625 C 91.734375 -80.003906 94.085938 -85.054688 97.421875 -89.046875 C 100.753906 -93.035156 104.710938 -96.019531 109.296875 -98 C 113.890625 -99.976562 118.765625 -100.96875 123.921875 -100.96875 C 130.046875 -100.96875 135.519531 -99.632812 140.34375 -96.96875 C 145.175781 -94.300781 148.988281 -90.429688 151.78125 -85.359375 C 154.570312 -80.285156 155.96875 -74.09375 155.96875 -66.78125 L 155.96875 0 L 129.0625 0 L 129.0625 -61.640625 C 129.0625 -67.347656 127.53125 -71.59375 124.46875 -74.375 C 121.40625 -77.164062 117.625 -78.5625 113.125 -78.5625 C 109.707031 -78.5625 106.753906 -77.828125 104.265625 -76.359375 C 101.773438 -74.890625 99.851562 -72.832031 98.5 -70.1875 C 97.144531 -67.550781 96.46875 -64.4375 96.46875 -60.84375 L 96.46875 0 L 70.46875 0 L 70.46875 -62.453125 C 70.46875 -67.378906 69.007812 -71.296875 66.09375 -74.203125 C 63.1875 -77.109375 59.425781 -78.5625 54.8125 -78.5625 C 51.625 -78.5625 48.753906 -77.84375 46.203125 -76.40625 C 43.660156 -74.96875 41.640625 -72.851562 40.140625 -70.0625 C 38.640625 -67.269531 37.890625 -63.832031 37.890625 -59.75 L 37.890625 0 Z M 11.0625 0 "/></g></g></g><g fill="#303030" fill-opacity="1"><g transform="translate(859.148029, 808.243038)"><g><path d="M 37.890625 -134.09375 L 37.890625 0 L 11.0625 0 L 11.0625 -134.09375 Z M 37.890625 -134.09375 "/></g></g></g><g fill="#303030" fill-opacity="1"><g transform="translate(908.102919, 808.243038)"><g><path d="M 56.0625 1.984375 C 45.925781 1.984375 37.179688 -0.113281 29.828125 -4.3125 C 22.484375 -8.519531 16.816406 -14.460938 12.828125 -22.140625 C 8.835938 -29.816406 6.84375 -38.847656 6.84375 -49.234375 C 6.84375 -59.492188 8.820312 -68.476562 12.78125 -76.1875 C 16.738281 -83.894531 22.316406 -89.921875 29.515625 -94.265625 C 36.710938 -98.617188 45.144531 -100.796875 54.8125 -100.796875 C 61.46875 -100.796875 67.644531 -99.710938 73.34375 -97.546875 C 79.039062 -95.390625 84.035156 -92.195312 88.328125 -87.96875 C 92.617188 -83.738281 95.945312 -78.457031 98.3125 -72.125 C 100.6875 -65.800781 101.875 -58.5 101.875 -50.21875 L 101.875 -42.75 L 17.546875 -42.75 L 17.546875 -59.671875 L 88.828125 -59.671875 L 76.3125 -55.25 C 76.3125 -60.414062 75.5 -64.890625 73.875 -68.671875 C 72.257812 -72.453125 69.875 -75.375 66.71875 -77.4375 C 63.570312 -79.507812 59.691406 -80.546875 55.078125 -80.546875 C 50.453125 -80.546875 46.519531 -79.492188 43.28125 -77.390625 C 40.039062 -75.296875 37.566406 -72.414062 35.859375 -68.75 C 34.148438 -65.09375 33.296875 -60.894531 33.296875 -56.15625 L 33.296875 -44.28125 C 33.296875 -38.695312 34.253906 -33.953125 36.171875 -30.046875 C 38.097656 -26.148438 40.816406 -23.195312 44.328125 -21.1875 C 47.835938 -19.175781 51.929688 -18.171875 56.609375 -18.171875 C 59.785156 -18.171875 62.675781 -18.632812 65.28125 -19.5625 C 67.894531 -20.5 70.117188 -21.851562 71.953125 -23.625 C 73.785156 -25.394531 75.179688 -27.570312 76.140625 -30.15625 L 100.53125 -26.640625 C 98.96875 -20.878906 96.160156 -15.851562 92.109375 -11.5625 C 88.054688 -7.269531 82.984375 -3.9375 76.890625 -1.5625 C 70.804688 0.800781 63.863281 1.984375 56.0625 1.984375 Z M 56.0625 1.984375 "/></g></g></g><g fill="#303030" fill-opacity="1"><g transform="translate(1016.451589, 808.243038)"><g><path d="M 11.0625 0 L 11.0625 -99.359375 L 37.078125 -99.359375 L 37.078125 -82.171875 L 37.984375 -82.171875 C 39.773438 -88.222656 42.769531 -92.796875 46.96875 -95.890625 C 51.175781 -98.984375 56.160156 -100.53125 61.921875 -100.53125 C 63.359375 -100.53125 64.851562 -100.46875 66.40625 -100.34375 C 67.96875 -100.226562 69.320312 -100.050781 70.46875 -99.8125 L 70.46875 -76.046875 C 69.320312 -76.410156 67.625 -76.695312 65.375 -76.90625 C 63.125 -77.113281 60.953125 -77.21875 58.859375 -77.21875 C 54.898438 -77.21875 51.3125 -76.347656 48.09375 -74.609375 C 44.882812 -72.867188 42.378906 -70.40625 40.578125 -67.21875 C 38.785156 -64.039062 37.890625 -60.296875 37.890625 -55.984375 L 37.890625 0 Z M 11.0625 0 "/></g></g></g><g fill="#e8604c" fill-opacity="1"><g transform="translate(1090.160099, 808.243038)"><g><path d="M 28.984375 1.703125 C 24.597656 1.703125 20.90625 0.21875 17.90625 -2.75 C 14.90625 -5.71875 13.40625 -9.390625 13.40625 -13.765625 C 13.40625 -18.085938 14.90625 -21.734375 17.90625 -24.703125 C 20.90625 -27.671875 24.597656 -29.15625 28.984375 -29.15625 C 33.296875 -29.15625 36.953125 -27.671875 39.953125 -24.703125 C 42.953125 -21.734375 44.453125 -18.085938 44.453125 -13.765625 C 44.453125 -9.390625 42.953125 -5.71875 39.953125 -2.75 C 36.953125 0.21875 33.296875 1.703125 28.984375 1.703125 Z M 28.984375 1.703125 "/></g></g></g></svg>